<?xml version="1.0" encoding="UTF-8"?>
<svg width="42px" height="42px" viewBox="0 0 42 42" version="1.1" xmlns="http://www.w3.org/2000/svg" xmlns:xlink="http://www.w3.org/1999/xlink">
    <!-- Generator: Sketch 62 (91390) - https://sketch.com -->
    <title>house (1)</title>
    <desc>Created with Sketch.</desc>
    <g id="Page-1" stroke="none" stroke-width="1" fill="none" fill-rule="evenodd">
        <g id="Biq-Landing-Page" transform="translate(-802.000000, -3488.000000)" fill="#5764D9" fill-rule="nonzero">
            <g id="Form-Copy" transform="translate(0.000000, 2914.000000)">
                <g id="Group-4" transform="translate(570.000000, 250.000000)">
                    <g id="house-(1)" transform="translate(232.000000, 324.000000)">
                        <path d="M41.9888438,18.1688555 C41.913293,17.1854648 41.459332,16.290668 40.7107148,15.6491836 L37.0778789,12.5352773 L37.0778789,3.6868125 C37.0778789,3.00726563 36.526957,2.45642578 35.8474922,2.45642578 L30.9257812,2.45642578 C30.2462344,2.45642578 29.7118008,3.00734766 29.7118008,3.6868125 L29.7118008,6.20746875 L23.4847266,0.900457031 C22.0926562,-0.292195312 20.0719805,-0.29203125 18.6843398,0.896929688 L1.2901875,15.6490195 C-0.248144531,16.9670977 -0.447726563,19.2930938 0.891023437,20.8557891 C1.91141016,22.0423711 3.54588281,22.4206992 4.93926562,21.9309727 L4.93926562,40.7640352 C4.93926562,41.443582 5.47378125,41.9944219 6.15324609,41.9944219 L35.8474102,41.9944219 C36.526957,41.9944219 37.0777969,41.4435 37.0777969,40.7640352 L37.0777969,21.9312187 C38.5161328,22.4398125 40.1161523,22.0135781 41.1110273,20.8541484 C41.7525117,20.1053672 42.0643125,19.1516719 41.9888438,18.1688555 Z M32.156168,4.91719922 L34.6334297,4.91719922 L34.6334297,10.4259258 L32.156168,8.31665625 L32.156168,4.91719922 Z M26.0204766,39.5336484 L15.996668,39.5336484 L15.996668,29.6738203 L26.0204766,29.6738203 L26.0204766,39.5336484 Z M34.6335117,39.5336484 L28.4649258,39.5336484 L28.4649258,28.4598398 C28.4649258,27.780293 27.9140039,27.2294531 27.2345391,27.2294531 L14.7661992,27.2294531 C14.0866523,27.2294531 13.5522187,27.780375 13.5522187,28.4598398 L13.5522187,39.5336484 L7.38371484,39.5336484 L7.38371484,20.1612305 L21.0782578,8.54453906 L34.6335117,20.1497461 L34.6335117,39.5336484 L34.6335117,39.5336484 Z M39.2428477,19.2522422 C38.8066055,19.7606719 38.031082,19.8352383 37.5072305,19.3860352 L21.8830664,5.99328516 C21.4241016,5.59978125 20.7473437,5.59814062 20.2864102,5.98918359 C19.9534453,6.27153516 4.55929688,19.3300898 4.49416406,19.3853789 C3.97884375,19.8262969 3.19954688,19.766168 2.75830078,19.2528984 C2.3165625,18.737332 2.37628125,17.9589375 2.88700781,17.5212187 L20.2812422,2.76904687 C20.7455391,2.37135938 21.4193438,2.37127734 21.8833125,2.76888281 L39.1093828,17.5176914 C39.624375,17.9590195 39.6840117,18.7374961 39.2428477,19.2522422 Z" id="Shape"></path>
                        <path d="M24.7736016,14.7605391 L17.2270547,14.7605391 C16.5475078,14.7605391 16.0130742,15.3114609 16.0130742,15.9909258 L16.0130742,23.3734102 C16.0130742,24.052957 16.5475898,24.6037969 17.2270547,24.6037969 L24.7736016,24.6037969 C25.4531484,24.6037969 26.0039883,24.052875 26.0039883,23.3734102 L26.0039883,15.9909258 C26.0039883,15.3113789 25.4531484,14.7605391 24.7736016,14.7605391 Z M23.5596211,22.1431055 L18.4574414,22.1431055 L18.4574414,17.2213945 L23.5596211,17.2213945 L23.5596211,22.1431055 Z" id="Shape"></path>
                        <circle id="Oval" cx="22.312418" cy="33.3813047" r="1.23038672"></circle>
                    </g>
                </g>
            </g>
        </g>
    </g>
</svg>