<?xml version="1.0" encoding="UTF-8"?>
<svg width="42px" height="42px" viewBox="0 0 42 42" version="1.1" xmlns="http://www.w3.org/2000/svg" xmlns:xlink="http://www.w3.org/1999/xlink">
    <!-- Generator: Sketch 62 (91390) - https://sketch.com -->
    <title>appartments</title>
    <desc>Created with Sketch.</desc>
    <g id="Page-1" stroke="none" stroke-width="1" fill="none" fill-rule="evenodd">
        <g id="Biq-Landing-Page" transform="translate(-952.000000, -3488.000000)" fill="#5764D9" fill-rule="nonzero">
            <g id="Form-Copy" transform="translate(0.000000, 2914.000000)">
                <g id="Group-4" transform="translate(570.000000, 250.000000)">
                    <g id="appartments" transform="translate(382.000000, 324.000000)">
                        <path d="M35.8909091,40.4727273 L35.8909091,10.5 C35.8909091,10.1907273 35.7038182,9.91123636 35.4174545,9.79363636 L29.0181818,7.16596364 L29.0181818,4.44130909 C29.9047636,4.12516364 30.5454545,3.28516364 30.5454545,2.29090909 C30.5454545,1.02785455 29.5176,0 28.2545455,0 C26.9914909,0 25.9636364,1.02785455 25.9636364,2.29090909 C25.9636364,3.28516364 26.6043273,4.12516364 27.4909091,4.44130909 L27.4909091,6.53825455 L24.7265455,5.40272727 C24.6998182,5.39127273 24.6723273,5.39432727 24.6448364,5.38669091 C24.6028364,5.37447273 24.5631273,5.36683636 24.5196,5.36225455 C24.4493455,5.35461818 24.3821455,5.35690909 24.3141818,5.36836364 C24.2897455,5.37218182 24.2660727,5.36454545 24.2416364,5.37065455 L15.8416364,7.57985455 C15.5071636,7.66767273 15.2727273,7.9716 15.2727273,8.31829091 L15.2727273,23.9583273 L13.8920727,23.6872364 C13.8905455,23.6872364 13.8890182,23.688 13.8874909,23.6872364 C13.7866909,23.6681455 13.6805455,23.6673818 13.5744,23.6925818 L4.41076364,25.7925818 C4.06407273,25.872 3.81818182,26.1805091 3.81818182,26.5363636 L3.81818182,40.4727273 L0,40.4727273 L0,42 L4.58181818,42 L13.7454545,42 L24.4363636,42 L35.1272727,42 L42,42 L42,40.4727273 L35.8909091,40.4727273 Z M28.2545455,1.52727273 C28.6760727,1.52727273 29.0181818,1.86938182 29.0181818,2.29090909 C29.0181818,2.71243636 28.6760727,3.05454545 28.2545455,3.05454545 C27.8330182,3.05454545 27.4909091,2.71243636 27.4909091,2.29090909 C27.4909091,1.86938182 27.8330182,1.52727273 28.2545455,1.52727273 Z M16.8,8.90705455 L23.6727273,7.09952727 L23.6727273,25.6085455 L16.8,24.2584364 L16.8,8.90705455 Z M5.34545455,27.1449818 L12.9818182,25.3947273 L12.9818182,40.4727273 L5.34545455,40.4727273 L5.34545455,27.1449818 Z M14.5090909,25.3649455 L23.6727273,27.1640727 L23.6727273,40.4727273 L14.5090909,40.4727273 L14.5090909,25.3649455 Z M25.2,40.4727273 L25.2,26.7272727 L25.2,26.5363636 L25.2,7.24767273 L34.3636364,11.0108727 L34.3636364,40.4727273 L25.2,40.4727273 Z" id="Shape"></path>
                        <rect id="Rectangle" x="17.5636364" y="22.1454545" width="5.34545455" height="1.52727273"></rect>
                        <rect id="Rectangle" x="17.5636364" y="18.3272727" width="5.34545455" height="1.52727273"></rect>
                        <rect id="Rectangle" x="17.5636364" y="14.5090909" width="5.34545455" height="1.52727273"></rect>
                        <rect id="Rectangle" x="17.5636364" y="10.6909091" width="5.34545455" height="1.52727273"></rect>
                        <rect id="Rectangle" x="6.10909091" y="29.0181818" width="6.10909091" height="1.52727273"></rect>
                        <rect id="Rectangle" x="6.10909091" y="32.8363636" width="6.10909091" height="1.52727273"></rect>
                        <rect id="Rectangle" x="6.10909091" y="36.6545455" width="6.10909091" height="1.52727273"></rect>
                    </g>
                </g>
            </g>
        </g>
    </g>
</svg>