<?xml version="1.0" encoding="UTF-8"?>
<svg width="57px" height="48px" viewBox="0 0 57 48" version="1.1" xmlns="http://www.w3.org/2000/svg" xmlns:xlink="http://www.w3.org/1999/xlink">
    <!-- Generator: Sketch 62 (91390) - https://sketch.com -->
    <title>house</title>
    <desc>Created with Sketch.</desc>
    <g id="Page-1" stroke="none" stroke-width="1" fill="none" fill-rule="evenodd">
        <g id="Biq-Landing-Page" transform="translate(-671.000000, -3280.000000)" fill="#5764D9" fill-rule="nonzero">
            <g id="Form-Copy" transform="translate(0.000000, 2914.000000)">
                <g id="Group-4" transform="translate(570.000000, 250.000000)">
                    <g id="house" transform="translate(101.000000, 116.000000)">
                        <polygon id="XMLID_1411_" points="15.6521739 23.4782609 19.3043478 23.4782609 19.3043478 26.6086957 15.6521739 26.6086957"></polygon>
                        <path d="M56.8695652,24.7433397 L56.8695652,8.04370601 C56.8695652,3.60841777 53.2766559,0 48.8603179,0 C44.4440919,0 40.8512946,3.60841777 40.8512946,8.04370601 L40.8512946,24.7433397 C40.8512946,28.5998186 43.5681277,31.8297884 47.1801918,32.6074967 L47.1801918,38.0496544 C46.5774343,37.8101432 45.9215813,37.6770565 45.235036,37.6770565 C45.0497618,37.6770565 44.8660557,37.6863939 44.684254,37.7051813 C43.9630957,35.1486328 41.6183794,33.2704556 38.8448662,33.2704556 C36.0818826,33.2704556 33.7442232,35.1346829 33.0136557,37.6799814 C32.9535031,37.6779564 32.8933506,37.676944 32.832974,37.676944 C32.1464287,37.676944 31.4906878,37.8100307 30.8879303,38.0495419 L30.8879303,26.3437559 L33.0549895,28.2362206 L35.2601341,25.6894595 L17.6345477,10.2968437 L0,25.6973345 L2.20514458,28.244208 L4.38486155,26.3406059 L4.38486155,48 L44.0997551,48 L44.0997551,44.624906 L30.8879303,44.624906 L30.8879303,43.0057023 C30.8879303,41.9285207 31.760534,41.0521505 32.832974,41.0521505 C33.0715679,41.0521505 33.3045609,41.0951253 33.5250081,41.1798373 C34.116676,41.4071986 34.7808182,41.327549 35.3023641,40.9667635 C35.8260383,40.6044029 36.1382266,40.0061312 36.1374425,39.3646597 C36.1374425,37.8653804 37.3520306,36.6456621 38.8448662,36.6456621 C40.3377018,36.6456621 41.55229,37.8653804 41.55229,39.3683722 C41.5510578,40.0709309 41.9014435,40.7163398 42.4894148,41.0951253 C43.0721214,41.4704232 43.7949599,41.5209354 44.423369,41.230012 C44.6778691,41.1121127 44.9510758,41.052263 45.235036,41.052263 C46.3075881,41.052263 47.1801918,41.9286332 47.1801918,43.0058148 L47.1801918,43.0169523 C47.1635014,43.1810889 47.1801918,48 47.1801918,48 L50.5406681,48 L50.5406681,43.2476885 C50.667246,42.5465923 51.2781806,42.0128952 52.0122207,42.0128952 C52.8375537,42.0128952 53.5090889,42.6873291 53.5090889,43.5162245 L53.5090889,48 L56.8695652,48 L56.8695652,43.5162245 C56.8695652,40.8263642 54.6905203,38.6379137 52.0122207,38.6379137 C51.499412,38.6379137 51.0050859,38.7188008 50.5406681,38.8674124 L50.5406681,32.6077217 C54.1527321,31.8297884 56.8695652,28.5999311 56.8695652,24.7433397 L56.8695652,24.7433397 Z M15.1656057,44.6247935 L15.1656057,36.7123742 C15.1656057,35.3269443 16.2878928,34.1999255 17.6672563,34.1999255 C19.0466198,34.1999255 20.1689069,35.3270568 20.1689069,36.7123742 L20.1689069,44.6247935 L15.1656057,44.6247935 Z M23.5294953,44.6247935 L23.5294953,36.7123742 C23.5294953,33.4659795 20.8996985,30.8249439 17.6673683,30.8249439 C14.4350382,30.8249439 11.8052414,33.466092 11.8052414,36.7123742 L11.8052414,44.6247935 L7.7453379,44.6247935 L7.7453379,23.405722 L17.6345477,14.7692567 L27.527454,23.408872 L27.527454,43.0055898 L27.527454,44.6247935 L23.5294953,44.6247935 Z M44.211771,24.7433397 L44.211771,8.04370601 C44.211771,5.46938259 46.2971706,3.37498154 48.8604299,3.37498154 C51.4236893,3.37498154 53.5090889,5.46938259 53.5090889,8.04370601 L53.5090889,24.7433397 C53.5090889,26.7226539 52.275682,28.4171196 50.5406681,29.0951534 L50.5406681,19.3498942 L47.1801918,19.3498942 L47.1801918,29.0951534 C45.4451778,28.4172321 44.211771,26.7227664 44.211771,24.7433397 Z" id="XMLID_1414_"></path>
                        <path d="M13.1383399,4.69565217 L24.4268775,4.69565217 C25.3436838,4.69565217 26.0869565,3.99485217 26.0869565,3.13043478 C26.0869565,2.26601739 25.3436838,1.56521739 24.4268775,1.56521739 L13.1383399,1.56521739 C12.2215336,1.56521739 11.4782609,2.26601739 11.4782609,3.13043478 C11.4782609,3.99485217 12.2215336,4.69565217 13.1383399,4.69565217 Z" id="XMLID_1417_"></path>
                        <path d="M25.5652174,8.34782609 C25.5652174,9.21224348 26.3294388,9.91304348 27.2720847,9.91304348 L32.7279153,9.91304348 C33.6705612,9.91304348 34.4347826,9.21224348 34.4347826,8.34782609 C34.4347826,7.4834087 33.6705612,6.7826087 32.7279153,6.7826087 L27.2720847,6.7826087 C26.329325,6.7826087 25.5652174,7.4834087 25.5652174,8.34782609 Z" id="XMLID_1418_"></path>
                    </g>
                </g>
            </g>
        </g>
    </g>
</svg>