<?xml version="1.0" encoding="UTF-8"?>
<svg width="42px" height="43px" viewBox="0 0 42 43" version="1.1" xmlns="http://www.w3.org/2000/svg" xmlns:xlink="http://www.w3.org/1999/xlink">
    <g id="Page-1" stroke="none" stroke-width="1" fill="none" fill-rule="evenodd">
        <g id="Form-Copy-2" transform="translate(-862.000000, -549.000000)" fill="#5764D9" fill-rule="nonzero">
            <g id="Group-4" transform="translate(570.000000, 261.000000)">
                <g id="key" transform="translate(292.000000, 288.523909)">
                    <path d="M40.366091,20.7870145 C38.7788743,19.3109912 36.4023666,19.2146175 34.7150493,20.5580413 L29.023072,25.0910287 L0,25.0910287 L0,41.7131218 L30.2229989,41.7131218 L40.9254386,27.4286067 C42.4410179,25.4057815 42.1954039,22.4882519 40.366091,20.7870145 Z M9.08675985,27.7153359 L26.4933753,27.7153359 C27.4358553,27.7153359 28.2024397,28.5348552 28.2024397,29.5419959 C28.2024397,30.5491366 27.4358553,31.3686559 26.4933753,31.3686559 L18.8246528,31.3686559 L18.8246528,33.9929631 L26.4933753,33.9929631 C28.7899306,33.9929631 30.65858,31.996111 30.65858,29.5419959 C30.65858,28.7867258 30.4810856,28.0751999 30.1689511,27.4515041 L36.1826571,22.6625449 C36.950201,22.0511521 38.0314785,22.0948963 38.7536093,22.766779 C39.5860746,23.5408455 39.6976882,24.868207 39.008178,25.7885428 L29.0432201,39.0888146 L9.08675985,39.0888146 L9.08675985,27.7153359 Z M6.63093937,39.0888146 L2.45582056,39.0888146 L2.45582056,27.7153359 L6.63093937,27.7153359 L6.63093937,39.0888146 Z" id="Shape"></path>
                    <path d="M10.3036367,15.5131106 C12.6734284,15.5131106 14.6015625,13.4526928 14.6015625,10.9203167 C14.6015625,8.38794057 12.6734284,6.32786455 10.3036367,6.32786455 C7.93384503,6.32786455 6.0060307,8.38794057 6.0060307,10.9203167 C6.0060307,13.4526928 7.93384503,15.5131106 10.3036367,15.5131106 Z M10.3036367,8.95217177 C11.319353,8.95217177 12.1457419,9.83491496 12.1457419,10.9203167 C12.1457419,12.0057184 11.319353,12.8888034 10.3036367,12.8888034 C9.28792028,12.8888034 8.46185126,12.0057184 8.46185126,10.9203167 C8.46185126,9.83491496 9.28792028,8.95217177 10.3036367,8.95217177 Z" id="Shape"></path>
                    <path d="M10.2192068,21.8406334 C14.0607639,21.8406334 17.5348593,19.5614949 19.2854989,15.9649057 L23.2217197,15.9649057 L23.2217197,19.6975118 L30.9169865,19.6975118 L30.9169865,15.9652474 L34.4096308,15.9652474 L34.4096308,5.87572774 L19.2854989,5.87572774 C17.5348593,2.27913849 14.0607639,0 10.2192068,0 C4.58447553,0 -5.68434189e-14,4.89900296 -5.68434189e-14,10.9203167 C-5.68434189e-14,16.9419723 4.58447553,21.8406334 10.2192068,21.8406334 Z M10.2192068,2.62430721 C13.3495066,2.62430721 16.1583973,4.616033 17.3752741,7.69794495 L17.6922058,8.50003495 L31.9538103,8.50003495 L31.9538103,13.3405984 L28.4608461,13.3405984 L28.4608461,17.0732047 L25.6775402,17.0732047 L25.6775402,13.3405984 L17.6922058,13.3405984 L17.3752741,14.1426884 C16.1583973,17.2249421 13.3495066,19.2163262 10.2192068,19.2163262 C5.93855078,19.2163262 2.45582056,15.4946561 2.45582056,10.9203167 C2.45582056,6.34597734 5.93855078,2.62430721 10.2192068,2.62430721 Z" id="Shape"></path>
                </g>
            </g>
        </g>
    </g>
</svg>