<?xml version="1.0" encoding="UTF-8"?>
<svg width="48px" height="51px" viewBox="0 0 48 51" version="1.1" xmlns="http://www.w3.org/2000/svg" xmlns:xlink="http://www.w3.org/1999/xlink">
    <!-- Generator: Sketch 62 (91390) - https://sketch.com -->
    <title>growth</title>
    <desc>Created with Sketch.</desc>
    <g id="Page-1" stroke="none" stroke-width="1" fill="none" fill-rule="evenodd">
        <g id="Biq-Landing-Page" transform="translate(-874.000000, -3277.000000)" fill="#5764D9" fill-rule="nonzero">
            <g id="Form-Copy" transform="translate(0.000000, 2914.000000)">
                <g id="Group-4" transform="translate(570.000000, 250.000000)">
                    <g id="growth" transform="translate(304.000000, 113.000000)">
                        <path d="M47.259626,32.8075766 C45.9939356,30.6885118 43.4793875,29.7542961 41.1452725,30.5356599 L34.6167987,32.7213626 C34.4458154,31.2890436 33.6606897,30.0441808 32.5335972,29.2608396 C33.5749519,28.1173178 34.2114392,26.5958187 34.2114392,24.9275977 L34.2114392,19.6237562 L28.9307404,19.6237562 C27.6631797,19.6237562 26.4815537,19.9973831 25.4863656,20.6386492 L25.4863656,17.3300882 L32.8534158,9.93061391 C35.1122272,7.66186099 35.1122272,3.97028054 32.8534158,1.70152762 L32.8533174,1.70142875 C30.594506,-0.567027568 26.9192003,-0.566928698 24.6603889,1.70152762 L24.0099237,2.35485569 L23.3595569,1.70152762 C21.100844,-0.567126437 17.4254398,-0.567225306 15.16653,1.70152762 C12.9077186,3.97028054 12.9077186,7.66186099 15.16653,9.93061391 L22.5334818,17.3300882 L22.5334818,20.6498214 C21.5347499,20.0017334 20.346824,19.6237562 19.0718807,19.6237562 L13.7912803,19.6237562 L13.7912803,24.9275977 C13.7912803,26.249974 14.1913243,27.4801054 14.87575,28.5029079 C13.1871785,28.7588804 11.5698746,29.4418693 10.2112607,30.4919597 L8.58470385,31.7490823 L0,31.7490823 L0,47.4926279 L6.52305982,47.4926279 L6.52305982,50.6181818 L9.47614046,50.6181818 L9.47614046,47.4926279 L34.6133535,47.4926279 L45.7426285,39.8118705 C48.0064601,38.2498351 48.6727735,35.1731225 47.259626,32.8075766 Z M44.0703973,37.3674269 L33.6966188,44.5267478 L9.47614046,44.5267478 L9.47614046,34.7153579 L12.0119508,32.8427741 C13.2538196,31.8829513 14.8008402,31.3542974 16.3679416,31.3542974 L29.7519921,31.3542974 C30.826126,31.3542974 31.700041,32.2319598 31.700041,33.3108212 C31.700041,34.3896825 30.826126,35.267345 29.7519921,35.267345 L20.4567771,35.267345 L20.4567771,38.2334228 L29.7519921,38.2334228 C31.4093594,38.2334228 32.8761546,37.4020312 33.7636537,36.1335385 L42.0790366,33.3495779 C43.0901714,33.0108518 44.1791691,33.4157214 44.7273593,34.3336237 C45.3394345,35.3582058 45.0508201,36.6907657 44.0703973,37.3674269 L44.0703973,37.3674269 Z M2.95308064,34.7153579 L6.52305982,34.7153579 L6.52305982,44.5267478 L2.95308064,44.5267478 L2.95308064,34.7153579 Z M16.7441641,22.5899329 L19.0716838,22.5899329 C20.9714006,22.5899329 22.5169446,24.1422792 22.5169446,26.050357 L22.5169446,28.3882195 L20.1894248,28.3882195 C18.2897081,28.3882195 16.7441641,26.8358733 16.7441641,24.9277954 L16.7441641,22.5899329 Z M31.2583586,22.5899329 L31.2583586,24.9276966 C31.2583586,26.8357744 29.7128146,28.3881207 27.8130978,28.3881207 L25.4863656,28.3881207 L25.4863656,26.0160494 C25.5048715,24.1237906 27.0425406,22.589834 28.9307404,22.589834 L31.2583586,22.589834 L31.2583586,22.5899329 Z M17.2544564,3.79903898 C17.808159,3.24289939 18.5355028,2.96478016 19.2628466,2.96478016 C19.9901903,2.96478016 20.7175341,3.24289939 21.2712367,3.79903898 L24.0097268,6.54968067 L26.7483154,3.79903898 C27.8557206,2.6867598 29.6577888,2.68685867 30.7651941,3.79894011 C31.8725993,4.91121929 31.8725993,6.72111997 30.7651941,7.83339915 L24.0097268,14.6184999 L17.254358,7.83339915 C16.1470512,6.72111997 16.1470512,4.91131816 17.2544564,3.79903898 L17.2544564,3.79903898 Z" id="Shape"></path>
                    </g>
                </g>
            </g>
        </g>
    </g>
</svg>