<?xml version="1.0" encoding="UTF-8"?>
<svg width="42px" height="56px" viewBox="0 0 42 56" version="1.1" xmlns="http://www.w3.org/2000/svg" xmlns:xlink="http://www.w3.org/1999/xlink">
    <!-- Generator: Sketch 59.1 (86144) - https://sketch.com -->
    <title>ic-list</title>
    <desc>Created with Sketch.</desc>
    <g id="Page-1" stroke="none" stroke-width="1" fill="none" fill-rule="evenodd">
        <g id="Cover-#2" transform="translate(-940.000000, -1170.000000)" fill="#FD773A" fill-rule="nonzero">
            <g id="Cómo-Funciona" transform="translate(0.000000, 939.000000)">
                <g id="ic-list" transform="translate(940.000000, 231.000000)">
                    <path d="M40.8960462,12.7653077 L29.2348,1.10416923 C28.5228462,0.392107692 27.5763385,0 26.5694154,0 L3.76923077,0 C1.69087692,0 0,1.69087692 0,3.76923077 L0,51.3692308 C0,53.4475846 1.69087692,55.1384615 3.76923077,55.1384615 L38.2307692,55.1384615 C40.3091231,55.1384615 42,53.4475846 42,51.3692308 L42,15.4305846 C42,14.4239846 41.608,13.4774769 40.8960462,12.7653077 Z M36.4847538,12.9230769 L29.6153846,12.9230769 C29.3184769,12.9230769 29.0769231,12.6815231 29.0769231,12.3846154 L29.0769231,5.51535385 L36.4847538,12.9230769 Z M38.2307692,51.9076923 L3.76923077,51.9076923 C3.47232308,51.9076923 3.23076923,51.6661385 3.23076923,51.3692308 L3.23076923,3.76923077 C3.23076923,3.47232308 3.47232308,3.23076923 3.76923077,3.23076923 L25.8461538,3.23076923 L25.8461538,12.3846154 C25.8461538,14.4629692 27.5370308,16.1538462 29.6153846,16.1538462 L38.7692308,16.1538462 L38.7692308,51.3692308 C38.7692308,51.6661385 38.5276769,51.9076923 38.2307692,51.9076923 Z" id="Shape"></path>
                    <path d="M22.7338462,24.6615385 L33.0261077,24.6615385 C33.9182308,24.6615385 34.6414923,23.9382769 34.6414923,23.0461538 C34.6414923,22.1540308 33.9182308,21.4307692 33.0261077,21.4307692 L22.7338462,21.4307692 C21.8417231,21.4307692 21.1184615,22.1540308 21.1184615,23.0461538 C21.1184615,23.9382769 21.8416154,24.6615385 22.7338462,24.6615385 Z" id="Path"></path>
                    <path d="M22.7338462,35.4307692 L33.0261077,35.4307692 C33.9182308,35.4307692 34.6414923,34.7075077 34.6414923,33.8153846 C34.6414923,32.9232615 33.9182308,32.2 33.0261077,32.2 L22.7338462,32.2 C21.8417231,32.2 21.1184615,32.9232615 21.1184615,33.8153846 C21.1184615,34.7075077 21.8416154,35.4307692 22.7338462,35.4307692 Z" id="Path"></path>
                    <path d="M33.0723077,42.9692308 L22.7338462,42.9692308 C21.8417231,42.9692308 21.1184615,43.6924923 21.1184615,44.5846154 C21.1184615,45.4767385 21.8417231,46.2 22.7338462,46.2 L33.0723077,46.2 C33.9644308,46.2 34.6876923,45.4767385 34.6876923,44.5846154 C34.6876923,43.6924923 33.9644308,42.9692308 33.0723077,42.9692308 Z" id="Path"></path>
                    <path d="M14.6737231,18.6476769 L10.9484308,22.3728615 L10.0699846,21.4944154 C9.43923077,20.8635538 8.41636923,20.8635538 7.78550769,21.4944154 C7.15464615,22.1252769 7.15464615,23.1480308 7.78550769,23.7788923 L9.80624615,25.7996308 C10.1216769,26.1150615 10.5351077,26.2728308 10.9484308,26.2728308 C11.3617538,26.2728308 11.7752923,26.1151692 12.0906154,25.7996308 L16.9580923,20.9321538 C17.5889538,20.3012923 17.5889538,19.2785385 16.9580923,18.6476769 C16.3273385,18.0168154 15.3044769,18.0168154 14.6737231,18.6476769 Z" id="Path"></path>
                    <path d="M14.6737231,30.2393538 L10.9484308,33.9646462 L10.0699846,33.0862 C9.43923077,32.4554462 8.41636923,32.4553385 7.78550769,33.0862 C7.15464615,33.7170615 7.15464615,34.7398154 7.78550769,35.3706769 L9.80624615,37.3913077 C10.1216769,37.7067385 10.5351077,37.8644 10.9484308,37.8644 C11.3617538,37.8644 11.7752923,37.7067385 12.0906154,37.3912 L16.9580923,32.5237231 C17.5889538,31.8928615 17.5889538,30.8701077 16.9580923,30.2392462 C16.3273385,29.6084923 15.3044769,29.6084923 14.6737231,30.2393538 L14.6737231,30.2393538 Z" id="Path"></path>
                    <path d="M14.6737231,41.0085846 L10.9484308,44.7338769 L10.0699846,43.8554308 C9.43923077,43.2246769 8.41636923,43.2245692 7.78550769,43.8554308 C7.15464615,44.4862923 7.15464615,45.5090462 7.78550769,46.1399077 L9.80624615,48.1605385 C10.1216769,48.4759692 10.5351077,48.6336308 10.9484308,48.6336308 C11.3617538,48.6336308 11.7752923,48.4759692 12.0906154,48.1604308 L16.9580923,43.2929538 C17.5889538,42.6620923 17.5889538,41.6393385 16.9580923,41.0084769 C16.3273385,40.3777231 15.3044769,40.3777231 14.6737231,41.0085846 L14.6737231,41.0085846 Z" id="Path"></path>
                </g>
            </g>
        </g>
    </g>
</svg>