<?xml version="1.0" encoding="UTF-8"?>
<svg width="42px" height="48px" viewBox="0 0 42 48" version="1.1" xmlns="http://www.w3.org/2000/svg" xmlns:xlink="http://www.w3.org/1999/xlink">
    <g id="Page-1" stroke="none" stroke-width="1" fill="none" fill-rule="evenodd">
        <g id="Biq-Landing-Page" transform="translate(-720.000000, -2254.000000)" fill="#FD773A" fill-rule="nonzero">
            <g id="Cómo-Funciona-Copy" transform="translate(-1030.000000, 1213.000000)">
                <g id="like" transform="translate(1750.000000, 1041.000000)">
                    <path d="M40.9276,29.935867 C41.594,29.1975534 42,28.2230166 42,27.1567696 C42,24.8584561 40.1156,22.9881235 37.8,22.9881235 L29.6482667,22.9881235 C30.4556,20.5564133 30.8,17.3298812 30.8,15.9468171 L30.8,14.5581948 C30.8,11.4937767 28.2874667,9 25.2,9 L23.8,9 C23.1578667,9 22.5978667,9.43353919 22.442,10.0523515 L21.6794667,13.0806413 C20.6108,17.3215439 17.2181333,22.0006176 13.7069333,22.8510214 C13.0918667,21.3058432 11.5733333,20.2090261 9.8,20.2090261 L1.4,20.2090261 C0.6272,20.2090261 0,20.8315439 0,21.5985748 L0,46.6104513 C0,47.3774822 0.6272,48 1.4,48 L9.8,48 C11.4697333,48 12.9145333,47.0282423 13.5912,45.6238717 L18.4016,47.2153682 C19.9742667,47.7359857 21.6132,48 23.2717333,48 L35,48 C37.3156,48 39.2,46.1296675 39.2,43.8313539 C39.2,43.2894299 39.0954667,42.7706651 38.9050667,42.2954394 C40.6858667,41.8128029 42,40.1925891 42,38.2731591 C42,37.2069121 41.594,36.2323753 40.9276,35.4940618 C41.594,34.7557482 42,33.7812114 42,32.7149644 C42,31.6487173 41.594,30.6741805 40.9276,29.935867 Z M11.2,43.8313539 C11.2,44.5974584 10.5718667,45.2209026 9.8,45.2209026 L2.8,45.2209026 L2.8,22.9881235 L9.8,22.9881235 C10.5718667,22.9881235 11.2,23.6115677 11.2,24.3776722 L11.2,43.8313539 Z M35,31.3254157 L37.8,31.3254157 C38.5718667,31.3254157 39.2,31.9488599 39.2,32.7149644 C39.2,33.4810689 38.5718667,34.1045131 37.8,34.1045131 L35,34.1045131 C34.2272,34.1045131 33.6,34.7270309 33.6,35.4940618 C33.6,36.2610926 34.2272,36.8836105 35,36.8836105 L37.8,36.8836105 C38.5718667,36.8836105 39.2,37.5070546 39.2,38.2731591 C39.2,39.0392637 38.5718667,39.6627078 37.8,39.6627078 L35,39.6627078 C34.2272,39.6627078 33.6,40.2852257 33.6,41.0522565 C33.6,41.8192874 34.2272,42.4418052 35,42.4418052 C35.7718667,42.4418052 36.4,43.0652494 36.4,43.8313539 C36.4,44.5974584 35.7718667,45.2209026 35,45.2209026 L23.2717333,45.2209026 C21.9146667,45.2209026 20.5734667,45.0050594 19.2864,44.5789311 L14,42.8299525 L14,25.635677 C16.1961333,25.2215914 18.3456,23.8413064 20.286,21.5819002 C22.1806667,19.3752969 23.7169333,16.4498337 24.3954667,13.7550356 L24.8929333,11.7790974 L25.2,11.7790974 C26.7437333,11.7790974 28,13.0259857 28,14.5581948 L28,15.9468171 C28,17.8125178 27.412,21.3910689 26.6597333,22.9881235 L23.8,22.9881235 C23.0272,22.9881235 22.4,23.6106413 22.4,24.3776722 C22.4,25.1447031 23.0272,25.7672209 23.8,25.7672209 L37.8,25.7672209 C38.5718667,25.7672209 39.2,26.3906651 39.2,27.1567696 C39.2,27.9228741 38.5718667,28.5463183 37.8,28.5463183 L35,28.5463183 C34.2272,28.5463183 33.6,29.1688361 33.6,29.935867 C33.6,30.7028979 34.2272,31.3254157 35,31.3254157 Z" id="Shape"></path>
                    <circle id="Oval" cx="7.5" cy="40.5" r="1.5"></circle>
                    <path d="M26.5,0 C25.6716,0 25,0.660590164 25,1.47540984 L25,4.52459016 C25,5.33940984 25.6716,6 26.5,6 C27.3284,6 28,5.33940984 28,4.52459016 L28,1.47540984 C28,0.660590164 27.3284,0 26.5,0 Z" id="Path"></path>
                    <path d="M20.5710562,6.50001831 L18.5,4.42894696 C17.9281725,3.85701768 17.0008689,3.85701768 16.4289438,4.42894696 C15.8570187,5.00087625 15.8570187,5.92808902 16.4289438,6.50001831 L18.5,8.57108965 C19.0718275,9.1429213 19.9992287,9.14301893 20.5710562,8.57108965 C21.1429813,7.99916036 21.1429813,7.07194759 20.5710562,6.50001831 Z" id="Path"></path>
                    <path d="M36.5710562,4.42894801 C35.9992287,3.85701733 35.0719251,3.85701733 34.5,4.42894801 L32.4289438,6.49992677 C31.8570187,7.07185745 31.8570187,7.99907249 32.4289438,8.57100317 C33.0007713,9.14293385 33.9280749,9.14303148 34.5,8.5711008 L36.5710562,6.50002441 C37.1429813,5.92809373 37.1429813,5.00087869 36.5710562,4.42894801 Z" id="Path"></path>
                </g>
            </g>
        </g>
    </g>
</svg>