<?xml version="1.0" encoding="UTF-8"?>
<svg width="42px" height="42px" viewBox="0 0 42 42" version="1.1" xmlns="http://www.w3.org/2000/svg" xmlns:xlink="http://www.w3.org/1999/xlink">
    <!-- Generator: Sketch 59.1 (86144) - https://sketch.com -->
    <title>ic-magnifying-glass</title>
    <desc>Created with Sketch.</desc>
    <g id="Page-1" stroke="none" stroke-width="1" fill="none" fill-rule="evenodd">
        <g id="Cover-#2" transform="translate(-540.000000, -1183.000000)" fill="#FD773A" fill-rule="nonzero">
            <g id="Cómo-Funciona" transform="translate(0.000000, 939.000000)">
                <g id="ic-magnifying-glass" transform="translate(540.000000, 244.000000)">
                    <path d="M30.8218435,27.1099663 C32.8886139,24.2876068 34.1248473,20.8208582 34.1248473,17.0626273 C34.1248473,7.6547081 26.4703021,0.000162930262 17.0623829,0.000162930262 C7.65446371,0.000162930262 0,7.6547081 0,17.0626273 C0,26.4705465 7.65454517,34.1250916 17.0624644,34.1250916 C20.8206952,34.1250916 24.2877698,32.8886954 27.1101292,30.821925 L38.2881228,41.9999185 L42,38.2880413 C42,38.2879598 30.8218435,27.1099663 30.8218435,27.1099663 L30.8218435,27.1099663 Z M17.0624644,28.8750713 C10.5486754,28.8750713 5.25002037,23.5764162 5.25002037,17.0626273 C5.25002037,10.5488383 10.5486754,5.2501833 17.0624644,5.2501833 C23.5762533,5.2501833 28.8749084,10.5488383 28.8749084,17.0626273 C28.8749084,23.5764162 23.5761718,28.8750713 17.0624644,28.8750713 Z" id="Shape"></path>
                </g>
            </g>
        </g>
    </g>
</svg>