<?xml version="1.0" encoding="UTF-8"?>
<svg width="57px" height="48px" viewBox="0 0 57 48" version="1.1" xmlns="http://www.w3.org/2000/svg" xmlns:xlink="http://www.w3.org/1999/xlink">
    <!-- Generator: Sketch 62 (91390) - https://sketch.com -->
    <title>menu</title>
    <desc>Created with Sketch.</desc>
    <g id="Page-1" stroke="none" stroke-width="1" fill="none" fill-rule="evenodd">
        <g id="Biq-Landing-Page" transform="translate(-1066.000000, -3283.000000)">
            <g id="Form-Copy" transform="translate(0.000000, 2914.000000)">
                <g id="Group-4" transform="translate(570.000000, 250.000000)">
                    <g id="menu" transform="translate(496.000000, 119.000000)">
                        <rect id="Rectangle" fill="#FFFFFF" x="0" y="0" width="57" height="48"></rect>
                        <path d="M47.4622552,20.5376837 C49.5125001,22.5879285 49.5125001,25.9120511 47.4622552,27.962296 C45.4120104,30.0125409 42.0878878,30.0125409 40.0376429,27.962296 C37.987398,25.9120511 37.987398,22.5879285 40.0376429,20.5376837 C42.0878878,18.4874388 45.4120104,18.4874388 47.4622552,20.5376837" id="Path" fill="#5764D9" fill-rule="nonzero"></path>
                        <path d="M31.7123469,20.5376837 C33.7625918,22.5879285 33.7625918,25.9120511 31.7123469,27.962296 C29.662102,30.0125409 26.3379795,30.0125409 24.2877346,27.962296 C22.2374897,25.9120511 22.2374897,22.5879285 24.2877346,20.5376837 C26.3379795,18.4874388 29.662102,18.4874388 31.7123469,20.5376837" id="Path" fill="#5764D9" fill-rule="nonzero"></path>
                        <path d="M15.9623571,20.5376837 C18.012602,22.5879285 18.012602,25.9120511 15.9623571,27.962296 C13.9121122,30.0125409 10.5879896,30.0125409 8.53774476,27.962296 C6.48749988,25.9120511 6.48749988,22.5879285 8.53774476,20.5376837 C10.5879896,18.4874388 13.9121122,18.4874388 15.9623571,20.5376837" id="Path" fill="#5764D9" fill-rule="nonzero"></path>
                    </g>
                </g>
            </g>
        </g>
    </g>
</svg>