<?xml version="1.0" encoding="UTF-8"?>
<svg width="42px" height="46px" viewBox="0 0 42 46" version="1.1" xmlns="http://www.w3.org/2000/svg" xmlns:xlink="http://www.w3.org/1999/xlink">
    <g id="Page-1" stroke="none" stroke-width="1" fill="none" fill-rule="evenodd">
        <g id="Form-Copy-2" transform="translate(-663.000000, -547.000000)" fill="#5562D6" fill-rule="nonzero">
            <g id="Group-4" transform="translate(570.000000, 261.000000)">
                <g id="tag" transform="translate(93.000000, 286.386694)">
                    <path d="M41.6395547,0.385174409 C41.1590977,-0.12833303 40.3798828,-0.12833303 39.8993437,0.385174409 L36.3153984,4.2150037 C36.0950625,4.10279996 35.8625859,4.01242335 35.6198555,3.94764322 L24.4823906,1.00729156 C23.2317422,0.673222453 21.8883984,1.07075681 20.9767852,2.0449132 L1.07953125,23.2722834 C-0.359707031,24.8103512 -0.359707031,27.3130206 1.07953125,28.8511761 L15.0013008,43.7279898 C16.4406211,45.2660577 18.7826133,45.2661453 20.2220156,43.7279898 L40.0865391,22.465556 C40.9981523,21.4913996 41.3702461,20.055893 41.0574609,18.7193535 L38.3059687,6.81786754 C38.2452656,6.55857171 38.1607734,6.31005795 38.0557734,6.07460541 L41.6397187,2.24477612 C42.1200938,1.73126868 42.1200938,0.898681848 41.6395547,0.385174409 Z M38.6697773,19.357337 C38.7740391,19.8028209 38.6500078,20.2812647 38.3461641,20.6060419 L18.4816406,41.8683881 C18.0018398,42.3811066 17.2211484,42.3811066 16.7413477,41.8683881 L2.81966016,26.9914868 C2.33985938,26.4787683 2.33985938,25.6445159 2.81966016,25.1317974 L22.7169961,3.90451491 C22.9497187,3.65582583 23.2668516,3.51986646 23.5898906,3.51986646 C23.6886563,3.51986646 23.7879961,3.53257704 23.8855312,3.55861181 L34.3469766,6.31838557 L31.3835977,9.48507322 C30.011625,8.78678024 28.3169414,9.04292035 27.1827773,10.2548961 C25.743375,11.7930516 25.743375,14.2956333 27.1827773,15.8337889 C27.9023555,16.6028228 28.8477656,16.9873836 29.7930938,16.9873836 C30.7383398,16.9873836 31.68375,16.6029105 32.4033281,15.8337889 C33.5377383,14.6216378 33.7773516,12.8107746 33.1237266,11.3446749 L36.0871055,8.17798728 L38.6697773,19.357337 Z M30.6631992,13.9742748 C30.1834805,14.4869057 29.4027891,14.4869933 28.9229883,13.9742748 C28.4432695,13.461644 28.4432695,12.627304 28.9229883,12.1146731 C29.1629297,11.85827 29.4779297,11.7302 29.7930937,11.7302 C30.1080937,11.7302 30.4232578,11.8583577 30.6630352,12.1145855 L30.6631172,12.1146731 L30.6631992,12.1147608 C31.143,12.6273916 31.142918,13.461644 30.6631992,13.9742748 Z" id="Shape"></path>
                    <path d="M20.2218516,15.8338765 C18.7825313,14.2958087 16.4405391,14.2958087 15.0011367,15.8338765 C13.5618984,17.3719444 13.5618984,19.8746138 15.0011367,21.4127693 C16.440457,22.9508372 18.7825313,22.9508372 20.2218516,21.4127693 C21.6612539,19.8746138 21.6612539,17.372032 20.2218516,15.8338765 Z M18.4817227,19.5530799 C18.0019219,20.0657985 17.2212305,20.0657985 16.7415117,19.5530799 C16.261793,19.0403614 16.2616289,18.2061091 16.7414297,17.6934782 C17.2212305,17.1808474 18.0018398,17.1807597 18.4817227,17.6934782 C18.9614414,18.2061091 18.9614414,19.0403614 18.4817227,19.5530799 Z" id="Shape"></path>
                    <path d="M21.9620625,28.8510885 C20.5193789,27.3094266 18.1843594,27.3092513 16.7414297,28.8510885 C15.3020273,30.389244 15.3020273,32.8918258 16.7414297,34.4299813 C18.1841953,35.9716432 20.5192148,35.9719061 21.9620625,34.4299813 C23.4014648,32.8918258 23.4014648,30.389244 21.9620625,28.8510885 Z M20.2218516,32.5703796 C19.7410664,33.0842376 18.9625078,33.0843253 18.4816406,32.5703796 C18.0019219,32.0577487 18.0019219,31.2234087 18.4816406,30.7107779 C18.9625078,30.1969198 19.7409844,30.1968321 20.2218516,30.7107779 C20.7015703,31.2234087 20.7015703,32.0575734 20.2218516,32.5703796 Z" id="Shape"></path>
                    <path d="M27.5356758,24.0569206 C27.4606172,23.335135 26.8521094,22.8149655 26.1767461,22.8951736 L10.5148477,24.7547753 C9.83940234,24.8349834 9.35262891,25.4850639 9.4276875,26.2069372 C9.49766016,26.8793707 10.0303711,27.3768365 10.6492148,27.3768365 C10.6945781,27.3768365 10.7405156,27.3741191 10.7866172,27.3686842 L26.4485977,25.5090825 C27.124043,25.4287867 27.6108164,24.7787063 27.5356758,24.0569206 Z" id="Path"></path>
                </g>
            </g>
        </g>
    </g>
</svg>