<?xml version="1.0" encoding="UTF-8"?>
<svg width="42px" height="42px" viewBox="0 0 42 42" version="1.1" xmlns="http://www.w3.org/2000/svg" xmlns:xlink="http://www.w3.org/1999/xlink">
    <!-- Generator: Sketch 62 (91390) - https://sketch.com -->
    <title>plant</title>
    <desc>Created with Sketch.</desc>
    <g id="Page-1" stroke="none" stroke-width="1" fill="none" fill-rule="evenodd">
        <g id="Biq-Landing-Page" transform="translate(-652.000000, -3488.000000)" fill="#5764D9" fill-rule="nonzero">
            <g id="Form-Copy" transform="translate(0.000000, 2914.000000)">
                <g id="Group-4" transform="translate(570.000000, 250.000000)">
                    <g id="plant" transform="translate(82.000000, 324.000000)">
                        <path d="M36.9299766,28.9375078 C31.8822656,27.0504609 26.761957,26.0533711 21.6991523,25.9689609 C21.8249883,24.2669766 21.8012812,22.6228242 21.6288516,21.0542227 C23.1848203,21.8751914 24.9761367,22.1137383 26.8211836,21.7215469 C33.2128945,20.3628633 38.0950664,14.9608594 38.6665781,8.32412109 C38.7073477,7.85088281 38.4892266,7.39257422 38.0962969,7.12572656 C33.1088789,3.73849219 26.4178359,3.70822266 21.2490469,7.35820313 C18.0252187,1.81838672 11.3115352,-1.25811328 4.72811719,0.49021875 C4.26907031,0.612035156 3.91166016,0.972480469 3.79361719,1.43251172 C1.37878125,10.8435469 8.71696875,19.1626641 14.5767891,19.1626641 C15.933668,19.1626641 17.2318125,18.7858125 18.3898477,18.1082344 C19.0355977,20.3435039 19.3134375,22.9900781 19.0645547,26.0071055 C14.4047695,26.2207148 9.70544531,27.2035312 5.06739844,28.9375078 C-2.40860156,31.7323945 -1.41610547,38.8905234 7.37370703,40.6439414 C16.4143711,42.4478086 25.583168,42.4478086 34.62375,40.6439414 C43.3927266,38.894625 44.4218086,31.7383828 36.9299766,28.9375078 L36.9299766,28.9375078 Z M35.9588086,8.87857031 C35.193375,13.9269375 31.3415156,18.0771445 26.2753477,19.1540508 C24.5572031,19.5193359 22.8881953,19.0939219 21.6357422,17.8196484 C24.2720625,14.7739102 26.8685977,13.0529766 30.5404805,11.9082305 C31.2325781,11.6924063 31.6186172,10.9565039 31.402875,10.2645703 C31.1871328,9.57239063 30.4509844,9.18684375 29.7592148,9.40209375 C26.6908359,10.3586602 24.2241562,11.7170977 21.9486094,13.7509805 C22.3769766,12.487207 22.4597461,11.1849609 22.2161953,9.91126172 C26.1879023,6.76413281 31.6290352,6.33863672 35.9588086,8.87857031 L35.9588086,8.87857031 Z M11.9056875,15.7511484 C7.47362109,13.0548633 5.21997656,7.85974219 6.16571484,2.85124219 C11.1952148,1.86662109 16.2791016,4.18638281 18.934043,8.59712109 C20.0017617,10.3708008 19.8705117,12.0882891 19.2540469,13.4240859 C17.7796992,10.8451875 15.7403203,8.91171094 13.3430391,7.8631875 C12.678832,7.57255078 11.9050313,7.87557422 11.6145586,8.53978125 C11.3240859,9.20390625 11.6270273,9.97770703 12.2911523,10.2681797 C14.3027227,11.1480469 16.1630273,12.9624961 17.4382852,15.6039023 C15.7915898,16.7604609 13.7565586,16.8773555 11.9056875,15.7511484 L11.9056875,15.7511484 Z M34.1100703,38.0697188 C25.409918,39.8055 16.587293,39.8055 7.88714062,38.0697188 C5.3011875,37.5538242 2.68332422,36.1493672 2.68332422,34.4632969 C2.68332422,33.3331523 3.94898438,32.1578906 5.98647656,31.3963125 C10.2140391,29.8158164 14.4884414,28.8963281 18.724125,28.6531875 C18.6083789,29.3194453 18.4681875,30.001043 18.3020742,30.6976523 C18.1339102,31.402793 18.569168,32.1107227 19.2743086,32.2788047 C19.9777266,32.4466406 20.6869687,32.0132695 20.8554609,31.3065703 C21.0740742,30.3898711 21.2533125,29.4835898 21.3943242,28.5896953 C26.2419609,28.6384219 31.1571914,29.5817813 36.0108164,31.3962305 C38.0482266,32.1578086 39.3138867,33.3329883 39.3138867,34.4632148 C39.3138867,36.1493672 36.6960234,37.5538242 34.1100703,38.0697188 L34.1100703,38.0697188 Z" id="Shape"></path>
                    </g>
                </g>
            </g>
        </g>
    </g>
</svg>