<?xml version="1.0" encoding="UTF-8"?>
<svg width="329px" height="249px" viewBox="0 0 329 249" version="1.1" xmlns="http://www.w3.org/2000/svg" xmlns:xlink="http://www.w3.org/1999/xlink">
    <!-- Generator: Sketch 62 (91390) - https://sketch.com -->
    <title>Group</title>
    <desc>Created with Sketch.</desc>
    <g id="Page-1" stroke="none" stroke-width="1" fill="none" fill-rule="evenodd">
        <g id="Form-Copy-3" transform="translate(-556.000000, -247.000000)">
            <g id="Group" transform="translate(556.000000, 247.000000)">
                <path d="M321.034273,178 L304.807512,178 L304.807512,175.001226 L321.034273,175.001226 C323.752615,175.001226 325.971207,172.809122 325.971207,170.113973 L325.971207,169.68065 C325.971207,166.985502 323.752615,164.792648 321.034273,164.792648 L288.800339,164.792648 C287.967421,164.792648 287.285942,164.121673 287.285942,163.293261 L287.285942,151.792962 C287.285942,145.398825 286.808907,140.07825 286.801335,140.025022 C286.801335,139.995034 286.793763,139.965046 286.793763,139.934309 C286.748331,138.430424 286.384876,137.056235 285.726113,135.961683 C283.72711,132.607554 280.372721,132.820467 278.706885,133.181819 C278.744744,135.67605 278.691741,141.590382 277.654379,145.638727 C276.753313,149.147293 273.065757,154.384653 270.317127,156.890878 C267.152037,159.776449 265.054598,163.549656 264.085384,168.107044 C262.957159,173.417123 258.398824,177.125857 253,177.125857 L253,174.127083 C256.952575,174.127083 260.29182,171.396699 261.124738,167.487797 C262.230248,162.308914 264.630567,158.001924 268.265119,154.686029 C270.642722,152.514167 273.981967,147.765608 274.716449,144.89803 C275.935539,140.179459 275.662947,132.20197 275.655375,132.121752 C275.632659,131.485262 276.01883,130.9035 276.617017,130.671845 C279.274783,129.640267 285.150643,129.100487 288.338448,134.436056 C289.239514,135.954186 289.754409,137.807428 289.822557,139.800114 C289.867988,140.342892 290.314735,145.575753 290.314735,151.792962 L290.314735,161.793874 L321.034273,161.793874 C325.426024,161.793874 329,165.331678 329,169.68065 L329,170.113973 C329,174.462196 325.426024,178 321.034273,178" id="Fill-33" fill="#9099E9"></path>
                <path d="M319.972691,191 L309,191 L309,188.03923 L319.972691,188.03923 C322.712048,188.03923 324.947791,185.874907 324.947791,183.213916 L324.947791,182.786084 C324.947791,180.125093 322.712048,177.96077 319.972691,177.96077 L317.065462,177.96077 L317.065462,175 L319.972691,175 C324.398394,175 328,178.492228 328,182.786084 L328,183.213916 C328,187.507032 324.398394,191 319.972691,191" id="Fill-34" fill="#9099E9"></path>
                <path d="M318.960734,204 L312,204 L312,201.03923 L318.960734,201.03923 C321.706782,201.03923 323.940337,198.874907 323.940337,196.213916 L323.940337,195.786084 C323.940337,193.125833 321.706782,190.96077 318.960734,190.96077 L316.038756,190.96077 L316.038756,188 L318.960734,188 C323.397246,188 327,191.492228 327,195.786084 L327,196.213916 C327,200.507032 323.397246,204 318.960734,204" id="Fill-35" fill="#9099E9"></path>
                <path d="M244.500187,216 L215.253843,216 L215.253843,212.99507 L243.000375,212.99507 L243.000375,171.00493 L206,171.00493 L206,168 L244.500187,168 C245.325084,168 246,168.672353 246,169.502465 L246,214.497535 C246,215.327647 245.325084,216 244.500187,216" id="Fill-36" fill="#9099E9"></path>
                <path d="M317.013122,218 L276.858562,218 C270.716562,218 266.427032,215.800888 263.91405,213.956329 C261.69716,212.336788 259.176586,211.481125 256.61046,211.481125 L244,211.481125 L244,208.520355 L256.61046,208.520355 C259.837098,208.520355 262.995407,209.581791 265.736151,211.589933 C267.884713,213.163583 271.559284,215.03923 276.858562,215.03923 L317.013122,215.03923 C319.746274,215.03923 321.963164,212.874907 321.963164,210.214656 L321.963164,209.786084 C321.963164,207.125833 319.746274,204.96077 317.013122,204.96077 L314.120536,204.96077 L314.120536,202 L317.013122,202 C321.416534,202 325,205.492968 325,209.786084 L325,210.214656 C325,214.507032 321.416534,218 317.013122,218" id="Fill-37" fill="#9099E9"></path>
                <polygon id="Fill-38" fill="#9099E9" points="252 199 255 199 255 169 252 169"></polygon>
                <path d="M238.996183,94.0539347 C221.383575,94.0539347 207.053768,108.384523 207.053768,125.999618 C207.053768,143.614713 221.383575,157.946065 238.996183,157.946065 C256.616425,157.946065 270.946232,143.614713 270.946232,125.999618 C270.946232,108.384523 256.616425,94.0539347 238.996183,94.0539347 Z M238.996183,161 C219.704003,161 204,145.298195 204,125.999618 C204,106.700278 219.704003,91 238.996183,91 C258.295997,91 274,106.700278 274,125.999618 C274,145.298195 258.295997,161 238.996183,161 L238.996183,161 Z" id="Fill-39" fill="#9099E9"></path>
                <polyline id="Fill-40" fill="#9099E9" points="230.4375 73 228 71.2908987 251.5625 36 254 37.7091013 230.4375 73"></polyline>
                <path d="M253.982397,81 L248,81 L248,78.026165 L253.182733,78.026165 L272.502934,50 L275,51.6712953 L255.227158,80.3487301 C254.94803,80.7561455 254.480302,81 253.982397,81" id="Fill-41" fill="#9099E9"></path>
                <polygon id="Fill-42" fill="#45DDC3" points="245 96 248 96 248 87 245 87"></polygon>
                <polygon id="Fill-43" fill="#45DDC3" points="229 96 232 96 232 87 229 87"></polygon>
                <path d="M254.092663,88 L222,88 L222,85.0118034 L254.092663,85.0118034 C255.17419,85.0118034 256.057069,84.1190796 256.057069,83.0216644 C256.057069,81.9242492 255.17419,81.0315255 254.092663,81.0315255 L224.987075,80.9881966 L224.994432,78 L254.092663,78.0433289 C256.800159,78.0433289 259,80.2762588 259,83.0216644 C259,85.7670701 256.800159,88 254.092663,88" id="Fill-44" fill="#9099E9"></path>
                <path d="M240.050802,104.118472 C238.670982,103.968771 237.238953,103.939725 235.844216,104.033567 L235.642837,101.061902 C237.216578,100.953909 238.820152,100.988169 240.371517,101.157233 L240.050802,104.118472 Z M227.729384,106.07426 L226.498733,103.363267 C227.930763,102.711586 229.437377,102.185772 230.966366,101.799977 L231.697298,104.688972 C230.339854,105.030825 229.004785,105.497057 227.729384,106.07426 Z M248.068674,106.49208 C246.823107,105.861253 245.510414,105.340653 244.167886,104.944431 L245.010695,102.087461 C246.524768,102.534328 248.009006,103.121214 249.41866,103.832477 L248.068674,106.49208 Z M220.845201,110.830414 L218.741908,108.718223 C219.860681,107.607013 221.083873,106.589646 222.381649,105.694423 L224.082184,108.143999 C222.926119,108.939422 221.844638,109.842838 220.845201,110.830414 Z M254.751478,111.526037 C253.80425,110.501222 252.760062,109.553864 251.641289,108.71152 L253.438784,106.333443 C254.69181,107.281545 255.877709,108.348813 256.944272,109.504709 L254.751478,111.526037 Z M216.049395,117.684609 L213.341965,116.440829 C213.998311,115.01011 214.796369,113.630781 215.698846,112.337101 L218.145229,114.044877 C217.339713,115.191091 216.638615,116.416252 216.049395,117.684609 Z M259.263862,118.57015 C258.734309,117.27945 258.077962,116.027477 257.324655,114.848493 L259.838165,113.244241 C260.688432,114.57218 261.426822,115.983535 262.023501,117.438832 L259.263862,118.57015 Z M213.975936,125.778115 L211,125.562874 C211.111877,123.989157 211.365466,122.419165 211.760766,120.897583 L214.6472,121.637892 C214.304109,122.988175 214.072896,124.380911 213.975936,125.778115 Z M261.009147,126.742603 C260.964396,125.340185 260.792851,123.938513 260.50197,122.577058 L263.418238,121.955913 C263.746411,123.490901 263.940332,125.069831 263.992542,126.648016 L261.009147,126.742603 Z M263.589783,132.205552 L260.65114,131.680483 C260.89727,130.309346 261.016606,128.903205 261.016606,127.500042 L264,127.500042 C264,129.078228 263.865747,130.661626 263.589783,132.205552 Z M211.98452,134.923993 C211.544469,133.415817 211.238672,131.855506 211.074585,130.286258 L214.035604,129.974941 C214.184773,131.368421 214.460737,132.752964 214.848579,134.092075 L211.98452,134.923993 Z M260.285674,141.032665 L257.719955,139.508103 C258.43597,138.306776 259.047565,137.03395 259.539825,135.726119 L262.336758,136.767319 C261.78483,138.242725 261.091191,139.677168 260.285674,141.032665 Z M216.198565,143.35116 C215.251337,142.089505 214.415986,140.735498 213.714889,139.327867 L216.377568,137.996203 C217.004081,139.245197 217.74993,140.448014 218.58528,141.567415 L216.198565,143.35116 Z M254.110048,148.143808 L252.237968,145.823824 C253.326907,144.947964 254.341261,143.967836 255.258655,142.910996 L257.511117,144.86306 C256.481846,146.05396 255.33324,147.156977 254.110048,148.143808 Z M223.090205,149.777107 C221.762595,148.923591 220.509569,147.945697 219.353504,146.870982 L221.389671,144.69325 C222.418942,145.648056 223.530256,146.516467 224.708697,147.274652 L223.090205,149.777107 Z M245.831129,152.65642 L244.891359,149.828497 C246.21897,149.389077 247.516746,148.82677 248.739938,148.156469 L250.171967,150.770641 C248.784689,151.526591 247.330284,152.160398 245.831129,152.65642 Z M231.801717,153.394495 C230.25781,153.06009 228.736279,152.582687 227.281874,151.977927 L228.423023,149.227461 C229.720799,149.763701 231.063327,150.186735 232.435688,150.483902 L231.801717,153.394495 Z M237.462708,154 C237.141993,154 236.821278,153.994042 236.493104,153.982125 L236.604982,151.004502 C237.99226,151.055891 239.416831,150.982158 240.804109,150.786282 L241.221784,153.736348 C239.983676,153.911371 238.723192,154 237.462708,154 L237.462708,154 Z" id="Fill-45" fill="#9099E9"></path>
                <path d="M66.5493624,205 L1.48715321,205 C0.66550106,205 0,204.326688 0,203.497071 L0,55.5029287 C0,54.6733121 0.66550106,54 1.48715321,54 L74,54 L74,57.0058574 L2.97430641,57.0058574 L2.97430641,201.994143 L66.5493624,201.994143 L66.5493624,205" id="Fill-46" fill="#9099E9"></path>
                <polygon id="Fill-47" fill="#9099E9" points="31 77 81 77 81 74 31 74"></polygon>
                <polygon id="Fill-48" fill="#9099E9" points="31 93 94 93 94 90 31 90"></polygon>
                <polygon id="Fill-49" fill="#9099E9" points="31 110 77 110 77 107 31 107"></polygon>
                <polygon id="Fill-50" fill="#9099E9" points="30 127 80 127 80 124 30 124"></polygon>
                <polygon id="Fill-51" fill="#9099E9" points="31 142 94 142 94 139 31 139"></polygon>
                <path d="M34.464255,188.999691 C34.2006891,188.999691 33.9371232,188.926111 33.7028424,188.78118 C33.2635659,188.511386 33,188.030513 33,187.513222 L33,169 L35.9285099,169 L35.9285099,185.08136 L40.9216193,182.484499 C41.338932,182.264502 41.8440999,182.265988 42.2687339,182.491932 L47.0714901,185.053117 L47.0714901,170.587548 L50,170.587548 L50,187.513222 C50,188.033486 49.7291128,188.516589 49.2898363,188.785639 C48.8505599,189.05469 48.3014643,189.071785 47.8475452,188.82949 L41.580534,185.482706 L35.130491,188.836179 C34.9254953,188.945435 34.6912145,188.999691 34.464255,188.999691" id="Fill-52" fill="#9099E9"></path>
                <path d="M42.5,155.024426 C37.8274162,155.024426 34.0243261,158.826885 34.0243261,163.500378 C34.0243261,168.173872 37.8274162,171.975574 42.5,171.975574 C47.1725838,171.975574 50.9756739,168.173872 50.9756739,163.500378 C50.9756739,158.826885 47.1725838,155.024426 42.5,155.024426 Z M42.5,175 C36.156476,175 31,169.841842 31,163.500378 C31,157.158914 36.156476,152 42.5,152 C48.843524,152 54,157.158914 54,163.500378 C54,169.841842 48.843524,175 42.5,175 L42.5,175 Z" id="Fill-53" fill="#9099E9"></path>
                <path d="M37.1619952,47 C36.9089838,47 36.6485308,46.9319819 36.4252854,46.7989686 L12.7471338,32.9844859 C12.2835275,32.7139249 11.9985175,32.2121023 12,31.6694687 L12.0067032,29.2230832 C12.0081915,28.6789382 12.2976663,28.178627 12.7635051,27.911089 L36.6782969,14.1956105 C37.0726971,13.9673719 37.5563954,13.9371416 37.9805617,14.1139887 L59.3972374,23.0840689 L58.2661274,25.8781026 L37.5117464,17.1891641 L14.9810761,30.110342 L14.9795878,30.8003481 L37.3405915,43.8477374 L59.1070184,36.9076207 L60,39.7915895 L37.608486,46.9304704 C37.4670973,46.9773273 37.3108255,47 37.1619952,47" id="Fill-54" fill="#9099E9"></path>
                <polyline id="Fill-55" fill="#9099E9" points="32.992318 33 13 32.9447853 13.0092184 30 33 30.0552147 32.992318 33"></polyline>
                <path d="M36.4959502,27.2849021 C35.6418876,27.2849021 34.8370978,27.6174984 34.2293994,28.220278 C33.621701,28.8255212 33.2850033,29.6327858 33.2850033,30.4917877 C33.2850033,31.3499684 33.6134889,32.1580543 34.2211873,32.7674037 C34.8206735,33.3759318 35.6336754,33.7126342 36.487738,33.7150979 C37.3500128,33.7150979 38.1548025,33.3833228 38.7625009,32.7805433 C39.3701993,32.1744788 39.7151092,31.3688566 39.7151092,30.5098547 C39.7151092,28.73765 38.2779846,27.2906507 36.5041623,27.2849021 C36.5041623,27.2849021 36.5041623,27.2849021 36.4959502,27.2849021 Z M36.4959502,37 C34.7467643,36.9950726 33.1125483,36.3142767 31.8889394,35.0832596 C30.6653305,33.8514214 29.991935,32.2180038 30.0000729,30.481933 C30.0000729,28.7458623 30.6817548,27.1149084 31.9135758,25.8912824 C33.1453969,24.6717625 34.7714007,24 36.4959502,24 C40.1010798,24.0106759 43.0081775,26.93506 42.9999827,30.5197094 C42.9917532,32.2557802 42.3101456,33.8859128 41.0783245,35.1103601 C39.8547156,36.32988 38.2287118,37 36.4959502,37 L36.4959502,37 Z" id="Fill-56" fill="#9099E9"></path>
                <path d="M73.3916582,41 L59.5089861,40.6300879 C57.2628009,40.6242853 55.1102068,39.7887192 53.4957613,38.2786074 C51.8813157,36.7684956 51,34.7644424 51,32.6349091 L51.0077993,31.9487584 C51.0233978,27.5613107 54.8606307,24 59.5791794,24 C59.6025771,24 74,24 74,24 L74,26.9012714 L59.5947779,26.9012714 C56.5764666,26.9012714 54.1353001,29.1664391 54.1275008,31.9574622 L54.1197016,32.6436129 C54.1197016,33.9977814 54.6812479,35.2728902 55.7107494,36.233211 C56.7324517,37.1935319 58.1051204,37.7251899 59.5635809,37.7295418 L73.47745,38.1001792 L73.3916582,41" id="Fill-57" fill="#9099E9"></path>
                <path d="M241.559539,9.88489348 L241,9.5032022 L242.663697,7 L243.230697,7.38921971 L241.559539,9.88489348 Z M248.729105,15.1231734 C247.565263,14.2114809 246.371579,13.3103281 245.192816,12.4460646 L246.938579,10.006854 C248.147184,10.8899386 249.370711,11.8106653 250.556934,12.7434375 L248.729105,15.1231734 Z M255.540566,20.8244517 C254.458789,19.8525317 253.324789,18.8745889 252.183329,17.9169729 L254.085763,15.5997229 C255.257066,16.5776657 256.413447,17.576688 257.525066,18.5704405 L255.540566,20.8244517 Z M261.971539,26.9616259 C260.941987,25.9121631 259.882592,24.8619475 258.808276,23.8410927 L260.859921,21.6525787 C261.956618,22.6967717 263.045855,23.7695726 264.097789,24.8431264 L261.971539,26.9616259 Z M267.999645,33.511358 C267.037237,32.3963979 266.044987,31.2776735 265.037816,30.1868043 L267.231211,28.139072 C268.253303,29.2540322 269.267934,30.3968475 270.252724,31.5351457 L267.999645,33.511358 Z M273.587579,40.4427813 C272.692316,39.2585597 271.767211,38.0773494 270.849566,36.9315227 L273.162329,35.0305947 C274.109816,36.202018 275.049842,37.4095778 275.960026,38.6209018 L273.587579,40.4427813 Z M278.712961,47.7310522 C277.907224,46.4994014 277.064184,45.2602222 276.206224,44.045134 L278.638355,42.3015501 C279.511237,43.5429878 280.376658,44.8107751 281.197316,46.0695282 L278.712961,47.7310522 Z M283.353408,55.3437982 C282.622276,54.0481558 281.861303,52.7547719 281.092868,51.499783 L283.636908,49.9203189 C284.420263,51.2039158 285.196158,52.5259077 285.942211,53.8501581 L283.353408,55.3437982 Z M287.494,63.2471416 C286.844934,61.90934 286.173487,60.5677741 285.487118,59.2600863 L288.128145,57.8545288 C288.821974,59.1908247 289.515803,60.5617514 290.172329,61.9296667 L287.494,63.2471416 Z M291.104895,71.4139799 C290.545355,70.0385361 289.963434,68.6548111 289.366592,67.3011998 L292.089684,66.0733133 C292.701447,67.4577911 293.298289,68.8716299 293.865289,70.2771873 L291.104895,71.4139799 Z M294.171171,79.8036597 C293.716079,78.4048778 293.223684,76.9850163 292.708908,75.5824703 L295.506605,74.539783 C296.028842,75.9739485 296.536158,77.4246765 297.006171,78.8550778 L294.171171,79.8036597 Z M296.685368,88.382303 C296.312342,86.9383505 295.916934,85.4883754 295.499145,84.0722781 L298.363987,83.2170488 C298.789237,84.6662711 299.192105,86.1486185 299.572592,87.6249431 L296.685368,88.382303 Z M298.632566,97.115279 C298.356526,95.6592811 298.058105,94.1844622 297.729842,92.7314756 L300.646908,92.0727382 C300.975171,93.5573441 301.281053,95.0637825 301.564553,96.5521527 L298.632566,97.115279 Z M300.005303,105.949889 C299.82625,104.482598 299.617355,102.993475 299.393539,101.526185 L302.340447,101.061681 C302.571724,102.562096 302.780618,104.083592 302.967132,105.584007 L300.005303,105.949889 Z M300.796118,114.846985 C300.714053,113.369154 300.602145,111.870244 300.467855,110.392414 L303.444605,110.123649 C303.578895,111.633852 303.690803,113.165134 303.772868,114.675337 L300.796118,114.846985 Z M303.996684,123.802049 L301.012474,123.777206 C301.012474,123.424875 301.019934,123.071792 301.012474,122.718709 C301.012474,121.578152 301.005013,120.442865 300.975171,119.310589 L303.959382,119.235305 C303.989224,120.393177 303.996684,121.553308 303.996684,122.71645 C304.004145,123.076309 303.996684,123.439179 303.996684,123.802049 Z M303.638579,132.921987 L300.661829,132.704415 C300.766276,131.223573 300.848342,129.723911 300.908026,128.244575 L303.884776,128.363524 C303.832553,129.875232 303.743026,131.408773 303.638579,132.921987 Z M302.683632,142.002023 L299.729263,141.587207 C299.930697,140.125939 300.10975,138.633805 300.266421,137.154469 L303.235711,137.469157 C303.079039,138.982371 302.892526,140.506878 302.683632,142.002023 Z M301.146763,151 L298.222237,150.39095 C298.520658,148.944739 298.796697,147.467662 299.050355,146.00263 L301.989803,146.514563 C301.736145,148.01272 301.452645,149.521417 301.146763,151 L301.146763,151 Z" id="Fill-58" fill="#9099E9"></path>
                <path d="M179.134138,168 L128.861577,168 C128.160447,168 127.511528,167.597466 127.198257,166.95912 C126.877527,166.321524 126.952115,165.560014 127.377269,164.99151 L138.587901,150.036929 C139.550091,148.751224 140.087127,147.156109 140.087127,145.545223 L140.087127,122 L143.816545,122 L143.816545,145.545223 C143.816545,147.967185 143.01845,150.365866 141.563977,152.298929 L132.605913,164.245021 L175.412179,164.245021 L166.014044,151.588487 C164.835548,150.002384 164.186629,148.038529 164.186629,146.058153 L164.186629,122 L167.916047,122 L167.916047,146.058153 C167.916047,147.233462 168.303907,148.399007 168.997579,149.340005 L180.625906,164.998269 C181.051059,165.566773 181.118189,166.327532 180.804918,166.962875 C180.484188,167.598968 179.842728,168 179.134138,168" id="Fill-109" fill="#5E5E5E"></path>
                <polyline id="Fill-110" fill="#5764D9" points="155 43 161.79513 56.4962145 177 58.6608573 165.996174 69.1661607 168.597913 84 155 76.9962145 141.402087 84 143.996174 69.1661607 133 58.6608573 148.197217 56.4962145 155 43"></polyline>
                <path d="M106.761639,187.218292 L200.238361,187.218292 L200.238361,168.781708 L106.761639,168.781708 L106.761639,187.218292 Z M202.119181,191 L104.880819,191 C103.842607,191 103,190.153654 103,189.109146 L103,166.890854 C103,165.846346 103.842607,165 104.880819,165 L202.119181,165 C203.157393,165 204,165.846346 204,166.890854 L204,189.109146 C204,190.153654 203.157393,191 202.119181,191 L202.119181,191 Z" id="Fill-111" fill="#5E5E5E"></path>
                <path d="M84.8186709,88 C68.1845605,65.1151876 70.0139267,31.196961 70.098834,29.7649264 C70.1605848,28.7737485 71.0019389,28 72.0285452,28 L104,28 L104,31.7487816 L73.8965056,31.7487816 C73.7652853,38.9921775 74.2129783,66.9078549 87.9756784,85.836953 L84.8186709,88" id="Fill-112" fill="#5E5E5E"></path>
                <path d="M194.789375,108 L194,104.281139 C233.301744,95.9203536 234.356773,42.3348382 234.17461,31.8017393 L202.637579,31.8017393 L202.637579,28 L236.011424,28 C237.020912,28 237.848237,28.784679 237.908959,29.7898589 C237.946909,30.4817754 238.842546,46.9395048 234.098708,64.8776315 C227.730581,88.9715345 214.136641,103.883477 194.789375,108" id="Fill-113" fill="#5E5E5E"></path>
                <path d="M152.445008,128 L151.554992,128 C146.61046,128 141.726783,127.294695 137.033281,125.902209 L138.121078,122.284312 C142.457052,123.571833 146.975594,124.224278 151.554992,124.224278 L152.445008,124.224278 C178.255468,124.224278 199.25832,103.377761 199.25832,77.7534453 L199.25832,12.9801775 C199.25832,11.937323 200.110301,11.0923164 201.160063,11.0923164 L208.196513,11.0923164 L208.196513,3.77572211 L95.8034865,3.77572211 L95.8034865,11.0923164 L102.839937,11.0923164 C103.889699,11.0923164 104.74168,11.937323 104.74168,12.9801775 L104.74168,77.7542005 C104.74168,79.3196149 104.81775,80.8925807 104.969889,82.4300547 L101.189223,82.8061167 C101.02187,81.1440438 100.938193,79.4442137 100.938193,77.7542005 L100.938193,14.8680385 L93.9017433,14.8680385 C92.851981,14.8680385 92,14.0230319 92,12.9801775 L92,1.88786105 C92,0.845761752 92.851981,0 93.9017433,0 L210.098257,0 C211.148019,0 212,0.845761752 212,1.88786105 L212,12.9801775 C212,14.0230319 211.148019,14.8680385 210.098257,14.8680385 L203.061807,14.8680385 L203.061807,77.7534453 C203.061807,105.459694 180.354992,128 152.445008,128" id="Fill-114" fill="#5E5E5E"></path>
                <polygon id="Fill-115" fill="#5E5E5E" points="104 15 186 15 186 11 104 11"></polygon>
                <path d="M154.502122,76.4274081 C154.80294,76.4274081 155.096238,76.4981821 155.374495,76.6389927 L165.361663,81.7870583 L163.458987,70.8827137 C163.3537,70.2848215 163.556753,69.6751336 163.992939,69.2512273 L172.077431,61.5280231 L160.909552,59.9370843 C160.300395,59.8493541 159.766442,59.4733676 159.495706,58.9285559 L154.502122,49.0069366 L149.501017,58.9285559 C149.230281,59.4733676 148.703849,59.8493541 148.087171,59.9370843 L136.919292,61.5280231 L145.003784,69.2512273 C145.447491,69.6751336 145.650543,70.2848215 145.545257,70.8827137 L143.635061,81.7870583 L153.622228,76.6389927 C153.900485,76.4981821 154.201303,76.4274081 154.502122,76.4274081 Z M167.858454,87 C167.565157,87 167.264338,86.9299633 166.986081,86.7884155 L154.502122,80.3524119 L142.010642,86.7884155 C141.378923,87.1142704 140.611837,87.0604527 140.032761,86.6476048 C139.453686,86.2354942 139.160388,85.5366017 139.280716,84.8450815 L141.672221,71.2152037 L131.564726,61.5611983 C131.053335,61.0716787 130.872844,60.3396109 131.090937,59.6716821 C131.30903,59.0044904 131.903147,58.5186569 132.61007,58.4176566 L146.568039,56.4286145 L152.810019,44.0276963 C153.133398,43.3981033 153.780158,43 154.502122,43 C155.216565,43 155.870845,43.3981033 156.186704,44.0276963 L162.428684,56.4286145 L176.386653,58.4176566 C177.093576,58.5186569 177.687693,59.0044904 177.905786,59.6716821 C178.1314,60.3396109 177.943388,61.0716787 177.431997,61.5611983 L167.332022,71.2152037 L169.716008,84.8450815 C169.836335,85.5366017 169.543037,86.2354942 168.963962,86.6476048 C168.640582,86.8813062 168.249518,87 167.858454,87 L167.858454,87 Z" id="Fill-116" fill="#5E5E5E"></path>
                <polygon id="Fill-117" fill="#5E5E5E" points="144 179 164 179 164 175 144 175"></polygon>
                <path d="M68.768681,213.216325 L235.231319,213.216325 L235.231319,190.783675 L68.768681,190.783675 L68.768681,213.216325 Z M237.11566,217 L66.8843405,217 C65.8441845,217 65,216.153214 65,215.108163 L65,188.891837 C65,187.846786 65.8441845,187 66.8843405,187 L237.11566,187 C238.155815,187 239,187.846786 239,188.891837 L239,215.108163 C239,216.153214 238.155815,217 237.11566,217 L237.11566,217 Z" id="Fill-118" fill="#5E5E5E"></path>
                <path d="M227.111449,228 L76.888551,228 C75.8460708,228 75,227.094886 75,225.97785 L75,215 L78.7771019,215 L78.7771019,223.955699 L225.222898,223.955699 L225.222898,215 L229,215 L229,225.97785 C229,227.094886 228.153929,228 227.111449,228" id="Fill-119" fill="#5E5E5E"></path>
                <polygon id="Fill-120" fill="#5E5E5E" points="87 249 91 249 91 225 87 225"></polygon>
                <polygon id="Fill-121" fill="#5E5E5E" points="108 249 112 249 112 225 108 225"></polygon>
                <polygon id="Fill-122" fill="#5E5E5E" points="129 249 133 249 133 225 129 225"></polygon>
                <polygon id="Fill-123" fill="#5E5E5E" points="150 248 154 248 154 225 150 225"></polygon>
                <polygon id="Fill-124" fill="#5E5E5E" points="171 248 175 248 175 225 171 225"></polygon>
                <polygon id="Fill-125" fill="#5E5E5E" points="192 248 196 248 196 225 192 225"></polygon>
                <polygon id="Fill-126" fill="#5E5E5E" points="214 249 218 249 218 225 214 225"></polygon>
                <path d="M123.476599,132 L113.264482,138.604324 L95.9743621,137.559436 L90.6733583,132 L76,167.651155 C81.7883662,171.129097 88.2140525,173.648722 95.0596203,175 L107.078728,146.105235 L119.037852,174.847181 C125.860926,173.407826 132.249123,170.802381 138,167.248407 L123.476599,132" id="Fill-127" fill="#5764D9"></path>
                <path d="M119.906517,177 C119.162834,177 118.457094,176.556564 118.15355,175.8236 L108,151.225859 L111.505934,149.767549 L120.946156,172.629642 L136.61662,166.3583 L122.646003,132.455262 L126.159526,131 L140.858648,166.685924 C141.048363,167.156027 141.048363,167.684798 140.85106,168.154901 C140.653756,168.624242 140.274326,168.994534 139.803833,169.182728 L120.612257,176.863617 C120.384599,176.955809 120.141764,177 119.906517,177" id="Fill-128" fill="#5E5E5E"></path>
                <path d="M94.7311605,177 C94.4989625,177 94.2592743,176.953524 94.019586,176.856 L75.1591174,168.965714 C74.7022117,168.772952 74.335189,168.402667 74.1404423,167.934857 C73.9531859,167.46781 73.9531859,166.943619 74.1404423,166.475048 L88.5666785,131 L92.0271775,132.456762 L78.3200061,166.168 L93.7199757,172.609905 L107.539501,138.619048 L111,140.074286 L96.4689002,175.822095 C96.1692899,176.556571 95.472696,177 94.7311605,177" id="Fill-129" fill="#5E5E5E"></path>
                <path d="M106,139.809011 C92.8514532,139.809011 82.189451,129.149205 82.189451,116 C82.189451,102.850042 92.8514532,92.1894818 106,92.1894818 C119.148547,92.1894818 129.810549,102.850042 129.810549,116 C129.810549,129.149205 119.148547,139.809011 106,139.809011 Z M136.34338,124.126709 C137.074273,121.384905 141,118.970099 141,116 C141,113.029148 137.074273,110.614341 136.34338,107.873291 C135.582347,105.038813 137.744887,100.986007 136.305705,98.5026371 C134.851453,95.9853615 130.240043,95.850494 128.198062,93.8063849 C126.156082,91.7615224 126.020452,87.1541773 123.496233,85.6954987 C121.017223,84.2564097 116.963402,86.4233311 114.130248,85.6631003 C111.387513,84.9277334 108.968784,81 106,81 C103.031216,81 100.612487,84.9277334 97.8772874,85.6631003 C95.0365985,86.4225777 90.9827772,84.2564097 88.5037675,85.6947452 C85.9870829,87.1534239 85.8514532,91.7615224 83.8094726,93.8056315 C81.7599569,95.850494 77.1560818,95.9846081 75.6942949,98.5018836 C74.255113,100.985254 76.4251884,105.038813 75.664155,107.873291 C74.9257266,110.614341 71,113.029148 71,116 C71,118.970099 74.9257266,121.384905 75.664155,124.126709 C76.4251884,126.961187 74.255113,131.013239 75.6942949,133.496609 C77.1560818,136.013885 81.7599569,136.149506 83.8094726,138.193615 C85.8514532,140.237724 85.9870829,144.845823 88.5037675,146.303748 C90.9827772,147.74359 95.0365985,145.576669 97.8772874,146.336146 C100.612487,147.071513 103.031216,151 106,151 C108.968784,151 111.387513,147.071513 114.130248,146.336146 C116.963402,145.576669 121.017223,147.74359 123.496233,146.304501 C126.012917,144.845823 126.148547,140.238478 128.198062,138.194369 C130.240043,136.149506 134.851453,136.014638 136.305705,133.497363 C137.744887,131.013993 135.582347,126.961187 136.34338,124.126709 L136.34338,124.126709 Z" id="Fill-130" fill="#5764D9"></path>
                <polyline id="Fill-131" fill="#5E5E5E" points="101.11713 124.641332 104.235725 124.641332 104.235725 110.599894 101 110.599894 101 107 108.122987 107 108.122987 124.641332 111 124.641332 111 128 101.11713 128 101.11713 124.641332"></polyline>
                <path d="M97.0525026,145.490317 C97.6863126,145.490317 98.3201226,145.55444 98.9390194,145.719966 C100.527273,146.146457 101.847089,147.234306 103.122165,148.286367 C104.307763,149.261629 105.530644,150.271934 106.5,150.271934 C107.476813,150.271934 108.699694,149.262374 109.877835,148.286367 C111.152911,147.234306 112.472727,146.146457 114.060981,145.719966 C115.708887,145.280054 117.431359,145.56115 119.101634,145.834791 C120.578039,146.077115 122.106639,146.328386 122.882125,145.876545 C123.687436,145.412028 124.231767,143.946898 124.761185,142.530979 C125.350255,140.959226 125.961696,139.33379 127.147293,138.144537 C128.332891,136.956029 129.965884,136.348355 131.531767,135.760066 C132.948519,135.23068 134.417467,134.6834 134.879775,133.880375 C135.327171,133.103446 135.081103,131.577176 134.835036,130.100116 C134.566599,128.431434 134.283248,126.706085 134.723187,125.059026 C135.148212,123.47087 136.236874,122.153372 137.288253,120.879119 C138.265066,119.695831 139.271706,118.47228 139.271706,117.5 C139.271706,116.526975 138.265066,115.303424 137.288253,114.120136 C136.236874,112.845883 135.148212,111.528384 134.723187,109.940228 C134.283248,108.293915 134.566599,106.568566 134.835036,104.899884 C135.081103,103.42357 135.327171,101.896554 134.879775,101.119625 C134.417467,100.317345 132.948519,99.7685739 131.531767,99.2391886 C129.965884,98.6508998 128.340347,98.0439707 127.147293,96.8554634 C125.961696,95.6654648 125.350255,94.0407738 124.761185,92.4690213 C124.231767,91.053102 123.687436,89.5879721 122.882125,89.1234552 C122.106639,88.6738504 120.578039,88.9236308 119.101634,89.1652095 C117.431359,89.4388495 115.708887,89.7206913 114.060981,89.2792883 C112.472727,88.8535432 111.152911,87.7656936 109.877835,86.7143791 C108.699694,85.7376259 107.476813,84.7280657 106.5,84.7280657 C105.530644,84.7280657 104.307763,85.7376259 103.122165,86.7136335 C101.847089,87.7656936 100.527273,88.8535432 98.9390194,89.2792883 C97.29857,89.7199457 95.5686415,89.4381039 93.8983657,89.1644639 C92.4219612,88.9228852 90.9008172,88.6731048 90.1178754,89.1227095 C89.3200204,89.5872265 88.7682329,91.0516107 88.2388151,92.4675301 C87.6497446,94.0400282 87.045761,95.6654648 85.8527068,96.8547178 C84.6671093,98.0432251 83.041573,98.6501542 81.4682329,99.238443 C80.0514811,99.7685739 78.5899898,100.3166 78.1202247,101.118879 C77.6728294,101.895808 77.9188968,103.422824 78.1649642,104.899884 C78.440858,106.568566 78.7167518,108.293915 78.2768131,109.940228 C77.8517875,111.528384 76.7631256,112.845883 75.7117467,114.120136 C74.7349336,115.303424 73.7282942,116.526975 73.7282942,117.5 C73.7282942,118.47228 74.7349336,119.695831 75.7117467,120.879119 C76.7631256,122.153372 77.8517875,123.47087 78.2768131,125.059026 C78.7167518,126.706085 78.440858,128.431434 78.1649642,130.100116 C77.9188968,131.577176 77.6728294,133.103446 78.1202247,133.880375 C78.5899898,134.682655 80.0514811,135.23068 81.4682329,135.760066 C83.041573,136.348355 84.6671093,136.955284 85.8527068,138.143791 C87.045761,139.333044 87.6497446,140.958481 88.2388151,142.530233 C88.7682329,143.946152 89.3200204,145.411282 90.1178754,145.875799 C90.9008172,146.326895 92.4219612,146.076369 93.8983657,145.834791 C94.942288,145.664045 96.0011236,145.490317 97.0525026,145.490317 Z M106.5,154 C104.188458,154 102.361593,152.491625 100.75097,151.160705 C99.7816139,150.362899 98.7824311,149.53676 97.9771195,149.321278 C97.1046987,149.086409 95.7774259,149.304128 94.5023493,149.513646 C92.4741573,149.846189 90.1775281,150.219741 88.2462717,149.101322 C86.2926456,147.96799 85.4724208,145.772905 84.7491318,143.836547 C84.3017365,142.637601 83.8319714,141.396901 83.2205312,140.780279 C82.6016343,140.164403 81.3638407,139.700631 80.1633299,139.252518 C78.224617,138.527782 76.03238,137.706116 74.8989785,135.749627 C73.7804903,133.816998 74.1533197,131.522001 74.4814096,129.497661 C74.6976507,128.218934 74.9138917,126.896217 74.6752809,126.024595 C74.4590398,125.219333 73.6388151,124.21872 72.8409602,123.252405 C71.5062308,121.639644 70,119.812146 70,117.5 C70,115.187108 71.5062308,113.35961 72.8409602,111.747595 C73.6388151,110.780534 74.4590398,109.779922 74.6752809,108.974659 C74.9138917,108.103783 74.6976507,106.781066 74.4814096,105.502339 C74.1533197,103.476508 73.7804903,101.180765 74.8989785,99.2488816 C76.03238,97.2923927 78.224617,96.4714726 80.1633299,95.7467367 C81.3638407,95.2978776 82.6016343,94.8341062 83.2205312,94.2182297 C83.8319714,93.6016077 84.3017365,92.361653 84.7491318,91.1612159 C85.4724208,89.2256042 86.2926456,87.0305191 88.2537283,85.8971871 C90.1849847,84.7780218 92.4741573,85.155302 94.5023493,85.4856086 C95.7848825,85.6943803 97.1046987,85.9106081 97.9771195,85.6779768 C98.7824311,85.4624946 99.7816139,84.6363553 100.75097,83.8385492 C102.361593,82.5076298 104.188458,81 106.5,81 C108.811542,81 110.638407,82.5076298 112.256486,83.8385492 C113.218386,84.6363553 114.225026,85.4624946 115.030337,85.6779768 C115.895301,85.9106081 117.222574,85.6943803 118.497651,85.4856086 C120.525843,85.1538108 122.822472,84.7787674 124.753728,85.8979327 C126.707354,87.0312647 127.527579,89.2270954 128.258325,91.1627071 C128.70572,92.3623986 129.168029,93.6023533 129.786925,94.2189753 C130.398366,94.8348518 131.643616,95.2986232 132.83667,95.7474823 C134.775383,96.4722183 136.975077,97.2931383 138.108478,99.2503728 C139.226966,101.181511 138.84668,103.477254 138.51859,105.503085 C138.309806,106.781811 138.093565,108.103783 138.324719,108.974659 C138.54096,109.779922 139.368641,110.780534 140.166496,111.747595 C141.493769,113.35961 143,115.187108 143,117.5 C143,119.812146 141.493769,121.639644 140.166496,123.252405 C139.368641,124.21872 138.54096,125.219333 138.324719,126.024595 C138.093565,126.896217 138.309806,128.218934 138.51859,129.497661 C138.84668,131.522746 139.226966,133.818489 138.108478,135.749627 C136.96762,137.706862 134.775383,138.527782 132.83667,139.252518 C131.643616,139.700631 130.398366,140.164403 129.786925,140.781025 C129.168029,141.397647 128.70572,142.638347 128.250868,143.837293 C127.527579,145.77365 126.707354,147.96799 124.753728,149.102067 C122.815015,150.221233 120.525843,149.845444 118.497651,149.513646 C117.222574,149.304128 115.895301,149.086409 115.030337,149.321278 C114.217569,149.53676 113.218386,150.362899 112.256486,151.161451 C110.638407,152.491625 108.811542,154 106.5,154 L106.5,154 Z" id="Fill-132" fill="#5E5E5E"></path>
                <path d="M106.496223,93.7770503 C94.5224411,93.7770503 84.7772182,103.52184 84.7772182,115.500378 C84.7772182,127.47816 94.5224411,137.22295 106.496223,137.22295 C118.477559,137.22295 128.222782,127.47816 128.222782,115.500378 C128.222782,103.52184 118.477559,93.7770503 106.496223,93.7770503 Z M106.496223,141 C92.4374167,141 81,129.560825 81,115.500378 C81,101.439175 92.4374167,90 106.496223,90 C120.562583,90 132,101.439175 132,115.500378 C132,129.560825 120.562583,141 106.496223,141 L106.496223,141 Z" id="Fill-133" fill="#5E5E5E"></path>
            </g>
        </g>
    </g>
</svg>